<svg width="48" height="48" viewBox="0 0 48 48" fill="none" xmlns="http://www.w3.org/2000/svg">
<path d="M19 15.6667L16.5 19V30.6667C16.5 31.1087 16.6756 31.5326 16.9882 31.8452C17.3007 32.1577 17.7246 32.3333 18.1667 32.3333H29.8333C30.2754 32.3333 30.6993 32.1577 31.0118 31.8452C31.3244 31.5326 31.5 31.1087 31.5 30.6667V19L29 15.6667H19Z" stroke="white" stroke-width="1.66667" stroke-linecap="round" stroke-linejoin="round"/>
<path d="M16.5 19H31.5" stroke="white" stroke-width="1.66667" stroke-linecap="round" stroke-linejoin="round"/>
<path d="M27.3334 22.3333C27.3334 23.2174 26.9822 24.0652 26.357 24.6904C25.7319 25.3155 24.8841 25.6667 24 25.6667C23.116 25.6667 22.2681 25.3155 21.643 24.6904C21.0179 24.0652 20.6667 23.2174 20.6667 22.3333" stroke="white" stroke-width="1.66667" stroke-linecap="round" stroke-linejoin="round"/>
</svg>
