<svg width="72" height="72" viewBox="0 0 72 72" fill="none" xmlns="http://www.w3.org/2000/svg">
<path d="M69.1875 58.302C68.8995 57.0795 68.466 55.875 67.809 54.783C66.5025 52.584 64.5105 50.9055 62.418 49.5495C60.3045 48.198 58.044 47.1135 55.731 46.221C51.3015 44.5095 51.516 44.5665 48.5265 43.5C41.9025 41.139 38.2245 37.629 37.9935 33.822C37.8825 31.9785 39.6825 25.971 47.1045 27.399C48.867 27.738 50.535 28.2135 52.1775 28.9545C53.691 29.6385 58.1085 31.7805 59.6565 34.83C59.7735 36.1755 60.2475 36.696 62.1405 37.59C63.564 38.262 65.001 38.9925 65.13 40.6485C65.1375 40.7385 65.2065 40.812 65.3265 40.83C65.4045 40.83 65.4765 40.7835 65.508 40.7085C65.781 40.05 66.8805 39.225 67.6995 39.45C67.794 39.474 67.878 39.4365 67.9215 39.3585C67.9665 39.2805 67.9515 39.1845 67.89 39.1215L66.5955 37.8405C66.129 37.3755 65.619 36.759 65.187 35.967C65.07 35.754 64.9695 35.544 64.881 35.3415C64.824 35.2005 64.767 35.061 64.71 34.92C63.624 32.0775 61.6005 29.0325 59.5125 27.06C58.3785 25.9695 57.1305 25.0095 55.8 24.1905C54.4635 23.3835 53.0715 22.6665 51.5505 22.2375L51.4395 22.6215C52.86 23.112 54.189 23.895 55.4325 24.75C56.6745 25.6185 57.822 26.6145 58.842 27.7185C60.2985 29.2665 61.446 31.0635 62.265 32.9865L59.2755 29.271L59.358 30.558L56.9085 27.7965L57.06 29.0895L54.681 27.171L54.885 28.047C54.3495 27.693 49.5975 25.803 47.226 24.912C44.8545 24.021 40.1685 19.626 41.52 14.064C41.52 14.064 39.3045 13.203 37.7175 12.6165C36.153 12.0525 34.5825 11.541 33.0075 11.0475C29.8575 10.0605 26.6895 9.1605 23.505 8.3205C20.3205 7.485 17.115 6.7275 13.8915 6.0585C10.6665 5.397 7.42349 4.8075 4.14149 4.479L4.08299 4.9785C7.31249 5.475 10.5 6.228 13.6635 7.0515C16.8255 7.884 19.9665 8.8005 23.082 9.795C26.196 10.7925 29.2905 11.85 32.3475 12.987C33.8745 13.5555 35.397 14.1405 36.888 14.769C37.2045 14.901 37.527 15.039 37.8495 15.177C36.0135 14.8155 34.1775 14.529 32.34 14.2905C29.0235 13.869 25.704 13.6035 22.3815 13.4535C19.0605 13.3035 15.7365 13.2795 12.4185 13.4025C9.10199 13.5315 5.78399 13.791 2.51099 14.352L2.57549 14.808C5.84549 14.472 9.13799 14.439 12.42 14.5335C15.7035 14.634 18.981 14.88 22.2405 15.249C25.4985 15.618 28.743 16.0995 31.944 16.728C33.918 17.1195 35.88 17.574 37.7985 18.1095C36.282 17.958 34.773 17.919 33.2775 17.937C30.312 17.982 27.3885 18.3075 24.5055 18.798C21.6225 19.293 18.7785 19.9575 15.993 20.817C13.2165 21.6855 10.4715 22.7175 7.95149 24.1905L8.12549 24.5025C10.7055 23.2605 13.4775 22.4655 16.2645 21.834C19.0575 21.213 21.891 20.787 24.7305 20.532C27.567 20.28 30.4185 20.196 33.225 20.3805C35.721 20.5455 38.2005 20.925 40.47 21.654C40.5675 22.3215 41.019 23.673 41.2365 24.348C34.854 27.2835 34.0455 32.5635 34.5675 35.3955C35.181 38.7165 37.584 41.2485 40.4235 42.888C42.774 44.2245 45.1755 45.0765 47.5125 45.9585C49.845 46.833 52.155 47.673 54.213 48.8355C56.241 49.956 57.927 51.687 59.2995 53.6505C62.055 57.6075 63.1575 62.5965 63.4875 67.518L64.035 67.503C64.047 62.5185 63.33 57.3 60.657 52.785C59.775 51.306 58.686 49.9035 57.4005 48.6855C58.8885 49.2615 60.342 49.9125 61.731 50.685C63.7905 51.8535 65.7315 53.3085 67.053 55.2615C67.719 56.232 68.1855 57.324 68.5275 58.461C68.8305 59.6115 68.97 60.8085 69.021 62.0175H69.489C69.5055 60.783 69.4365 59.535 69.1875 58.302Z" fill="white"/>
</svg>
