<svg width="48" height="48" viewBox="0 0 48 48" fill="none" xmlns="http://www.w3.org/2000/svg">
<g clip-path="url(#clip0_11_2045)">
<path d="M28.1667 15.6667H19.8334C17.5322 15.6667 15.6667 17.5322 15.6667 19.8334V28.1667C15.6667 30.4679 17.5322 32.3334 19.8334 32.3334H28.1667C30.4679 32.3334 32.3334 30.4679 32.3334 28.1667V19.8334C32.3334 17.5322 30.4679 15.6667 28.1667 15.6667Z" stroke="white" stroke-width="1.66667" stroke-linecap="round" stroke-linejoin="round"/>
<path d="M27.3334 23.475C27.4362 24.1685 27.3178 24.8769 26.9948 25.4992C26.6719 26.1215 26.161 26.6262 25.5347 26.9414C24.9085 27.2566 24.1987 27.3663 23.5065 27.255C22.8143 27.1436 22.1748 26.8167 21.6791 26.321C21.1833 25.8252 20.8565 25.1857 20.7451 24.4935C20.6337 23.8013 20.7434 23.0916 21.0586 22.4653C21.3739 21.8391 21.8785 21.3281 22.5009 21.0052C23.1232 20.6823 23.8315 20.5638 24.525 20.6667C25.2325 20.7716 25.8874 21.1012 26.3931 21.6069C26.8988 22.1126 27.2285 22.7676 27.3334 23.475Z" stroke="white" stroke-width="1.66667" stroke-linecap="round" stroke-linejoin="round"/>
<path d="M28.5833 19.4167H28.5921" stroke="white" stroke-width="1.66667" stroke-linecap="round" stroke-linejoin="round"/>
</g>
<defs>
<clipPath id="clip0_11_2045">
<rect width="20" height="20" fill="white" transform="translate(14 14)"/>
</clipPath>
</defs>
</svg>
