<svg width="96" height="96" viewBox="0 0 96 96" fill="none" xmlns="http://www.w3.org/2000/svg">
<path d="M92.25 77.736C91.866 76.106 91.288 74.5 90.412 73.044C88.67 70.112 86.014 67.874 83.224 66.066C80.406 64.264 77.392 62.818 74.308 61.628C68.402 59.346 68.688 59.422 64.702 58C55.87 54.852 50.966 50.172 50.658 45.096C50.51 42.638 52.91 34.628 62.806 36.532C65.156 36.984 67.38 37.618 69.57 38.606C71.588 39.518 77.478 42.374 79.542 46.44C79.698 48.234 80.33 48.928 82.854 50.12C84.752 51.016 86.668 51.99 86.84 54.198C86.85 54.318 86.942 54.416 87.102 54.44C87.206 54.44 87.302 54.378 87.344 54.278C87.708 53.4 89.174 52.3 90.266 52.6C90.392 52.632 90.504 52.582 90.562 52.478C90.622 52.374 90.602 52.246 90.52 52.162L88.794 50.454C88.172 49.834 87.492 49.012 86.916 47.956C86.76 47.672 86.626 47.392 86.508 47.122C86.432 46.934 86.356 46.748 86.28 46.56C84.832 42.77 82.134 38.71 79.35 36.08C77.838 34.626 76.174 33.346 74.4 32.254C72.618 31.178 70.762 30.222 68.734 29.65L68.586 30.162C70.48 30.816 72.252 31.86 73.91 33C75.566 34.158 77.096 35.486 78.456 36.958C80.398 39.022 81.928 41.418 83.02 43.982L79.034 39.028L79.144 40.744L75.878 37.062L76.08 38.786L72.908 36.228L73.18 37.396C72.466 36.924 66.13 34.404 62.968 33.216C59.806 32.028 53.558 26.168 55.36 18.752C55.36 18.752 52.406 17.604 50.29 16.822C48.204 16.07 46.11 15.388 44.01 14.73C39.81 13.414 35.586 12.214 31.34 11.094C27.094 9.97998 22.82 8.96998 18.522 8.07798C14.222 7.19598 9.89802 6.40998 5.52202 5.97198L5.44402 6.63798C9.75002 7.29998 14 8.30399 18.218 9.40199C22.434 10.512 26.622 11.734 30.776 13.06C34.928 14.39 39.054 15.8 43.13 17.316C45.166 18.074 47.196 18.854 49.184 19.692C49.606 19.868 50.036 20.052 50.466 20.236C48.018 19.754 45.57 19.372 43.12 19.054C38.698 18.492 34.272 18.138 29.842 17.938C25.414 17.738 20.982 17.706 16.558 17.87C12.136 18.042 7.71202 18.388 3.34802 19.136L3.43402 19.744C7.79402 19.296 12.184 19.252 16.56 19.378C20.938 19.512 25.308 19.84 29.654 20.332C33.998 20.824 38.324 21.466 42.592 22.304C45.224 22.826 47.84 23.432 50.398 24.146C48.376 23.944 46.364 23.892 44.37 23.916C40.416 23.976 36.518 24.41 32.674 25.064C28.83 25.724 25.038 26.61 21.324 27.756C17.622 28.914 13.962 30.29 10.602 32.254L10.834 32.67C14.274 31.014 17.97 29.954 21.686 29.112C25.41 28.284 29.188 27.716 32.974 27.376C36.756 27.04 40.558 26.928 44.3 27.174C47.628 27.394 50.934 27.9 53.96 28.872C54.09 29.762 54.692 31.564 54.982 32.464C46.472 36.378 45.394 43.418 46.09 47.194C46.908 51.622 50.112 54.998 53.898 57.184C57.032 58.966 60.234 60.102 63.35 61.278C66.46 62.444 69.54 63.564 72.284 65.114C74.988 66.608 77.236 68.916 79.066 71.534C82.74 76.81 84.21 83.462 84.65 90.024L85.38 90.004C85.396 83.358 84.44 76.4 80.876 70.38C79.7 68.408 78.248 66.538 76.534 64.914C78.518 65.682 80.456 66.55 82.308 67.58C85.054 69.138 87.642 71.078 89.404 73.682C90.292 74.976 90.914 76.432 91.37 77.948C91.774 79.482 91.96 81.078 92.028 82.69H92.652C92.674 81.044 92.582 79.38 92.25 77.736Z" fill="white"/>
</svg>
