<svg width="67" height="20" viewBox="0 0 67 20" fill="none" xmlns="http://www.w3.org/2000/svg">
<g clip-path="url(#clip0_11_2064)">
<path d="M5.70372 2.86835C4.03465 1.96832 2.12977 1.24446 0 0.74213L0.0893348 0.350945H8.8216C10.0052 0.391733 10.9656 0.741857 11.2782 1.97837L13.1759 10.8738L13.7573 13.553L19.0726 0.350945H24.8117L16.2806 19.6909H10.5412L5.70372 2.86835ZM29.0333 19.7115H23.6058L27.0005 0.350945H32.4277L29.0333 19.7115ZM48.7083 0.824254L47.9702 5.00493L47.4793 4.79934C46.4972 4.40788 45.2008 4.0167 43.4364 4.05803C41.2935 4.05803 40.3325 4.902 40.3102 5.72598C40.3102 6.63236 41.4728 7.22967 43.3711 8.11552C46.4981 9.49548 47.9485 11.1842 47.9268 13.3882C47.8829 17.4046 44.1754 20 38.4805 20C36.0456 19.9792 33.7003 19.5045 32.4274 18.9696L33.1869 14.6236L33.9016 14.9329C35.666 15.6545 36.8271 15.9628 38.9939 15.9628C40.5566 15.9628 42.232 15.3649 42.2533 14.0679C42.2533 13.2234 41.5396 12.605 39.4397 11.6575C37.3853 10.7304 34.6385 9.18587 34.683 6.40515C34.7062 2.63619 38.4805 0 43.8403 0C45.9398 0 47.6378 0.432521 48.7083 0.824254ZM55.9219 12.8527H60.4331C60.2099 11.8848 59.1822 7.25048 59.1822 7.25048L58.8029 5.58226C58.5349 6.30304 58.0662 7.47714 58.0888 7.43581C58.0888 7.43581 56.3688 11.7405 55.9219 12.8527ZM62.6214 0.350945L67 19.7112H61.9747C61.9747 19.7112 61.4829 17.4867 61.3271 16.807H54.3587C54.1571 17.3217 53.2196 19.7112 53.2196 19.7112H47.5247L55.5865 1.9573C56.1451 0.700794 57.1286 0.350945 58.4233 0.350945H62.6214Z" fill="white"/>
</g>
<defs>
<clipPath id="clip0_11_2064">
<rect width="67" height="20" fill="white"/>
</clipPath>
</defs>
</svg>
