<svg width="48" height="48" viewBox="0 0 48 48" fill="none" xmlns="http://www.w3.org/2000/svg">
<path d="M32.7833 19.3499C32.6843 18.9544 32.4827 18.5921 32.1989 18.2994C31.915 18.0068 31.559 17.7942 31.1667 17.6833C29.7333 17.3333 24 17.3333 24 17.3333C24 17.3333 18.2667 17.3333 16.8333 17.7166C16.441 17.8276 16.085 18.0401 15.8011 18.3328C15.5173 18.6254 15.3157 18.9878 15.2167 19.3833C14.9543 20.8379 14.826 22.3135 14.8333 23.7916C14.824 25.2808 14.9523 26.7677 15.2167 28.2333C15.3258 28.6165 15.5319 28.965 15.8151 29.2453C16.0983 29.5256 16.449 29.7281 16.8333 29.8333C18.2667 30.2166 24 30.2166 24 30.2166C24 30.2166 29.7333 30.2166 31.1667 29.8333C31.559 29.7223 31.915 29.5097 32.1989 29.2171C32.4827 28.9244 32.6843 28.5621 32.7833 28.1666C33.0436 26.7229 33.1719 25.2585 33.1667 23.7916C33.176 22.3024 33.0477 20.8155 32.7833 19.3499V19.3499Z" stroke="white" stroke-width="1.66667" stroke-linecap="round" stroke-linejoin="round"/>
<path d="M22.125 26.5167L26.9167 23.7917L22.125 21.0667V26.5167Z" stroke="white" stroke-width="1.66667" stroke-linecap="round" stroke-linejoin="round"/>
</svg>
